<svg xmlns="http://www.w3.org/2000/svg" viewBox="0 0 251.07545 251.07545">
  <defs>
    <style>
      .cls-1 {
        fill: #4d9d59;
      }

      .cls-2 {
        fill: #fff;
      }
    </style>
  </defs>
  <title>badge</title>
  <g id="Layer_2" data-name="Layer 2">
    <g id="Layer_1-2" data-name="Layer 1">
      <circle class="cls-1" cx="125.53773" cy="125.53773" r="125.53773"/>
      <g>
        <g>
          <g>
            <g>
              <path class="cls-2" d="M14.83658,149.62268a14.01087,14.01087,0,0,0,4.6865,8.6319,14.00735,14.00735,0,0,0,9.0518,3.8291,13.95693,13.95693,0,0,0-4.6934-8.6309A13.94869,13.94869,0,0,0,14.83658,149.62268Z"/>
              <path class="cls-2" d="M33.26918,142.87858a14.88837,14.88837,0,0,1-2.457,18.3828,14.89424,14.89424,0,0,1,2.457-18.3828Z"/>
            </g>
            <g>
              <path class="cls-2" d="M12.59338,132.53578a13.977,13.977,0,0,0,3.3203,9.2442,14.00542,14.00542,0,0,0,8.3643,5.1611,13.98889,13.98889,0,0,0-3.3271-9.2461A13.95461,13.95461,0,0,0,12.59338,132.53578Z"/>
              <path class="cls-2" d="M31.83368,128.66768a13.95021,13.95021,0,0,1,.5009,9.8115,13.96447,13.96447,0,0,1-5.7187,7.9922,14.90041,14.90041,0,0,1,5.2178-17.8037Z"/>
            </g>
            <g>
              <path class="cls-2" d="M12.97038,115.30728a14.00351,14.00351,0,0,0,1.8769,9.6426,14.03064,14.03064,0,0,0,7.4834,6.3701,13.98609,13.98609,0,0,0-1.8847-9.6436A13.938,13.938,0,0,0,12.97038,115.30728Z"/>
              <path class="cls-2" d="M32.57388,114.40588a13.94508,13.94508,0,0,1-.9932,9.7744,13.96644,13.96644,0,0,1-6.8672,7.0293,14.90367,14.90367,0,0,1,7.8604-16.8037Z"/>
            </g>
            <g>
              <path class="cls-2" d="M15.95868,98.33558a14.8747,14.8747,0,0,0,6.8203,17.2461,13.9752,13.9752,0,0,0-.3975-9.8164A13.94464,13.94464,0,0,0,15.95868,98.33558Z"/>
              <path class="cls-2" d="M35.47528,100.42448a13.971,13.971,0,0,1-2.4678,9.5078,13.94871,13.94871,0,0,1-7.8555,5.9033,14.8932,14.8932,0,0,1,10.3233-15.4111Z"/>
            </g>
            <g>
              <path class="cls-2" d="M21.49278,82.01528a14.877,14.877,0,0,0,4.1182,18.083,14.8926,14.8926,0,0,0-4.1182-18.083Z"/>
              <path class="cls-2" d="M40.46258,87.04268a13.95706,13.95706,0,0,1-3.8828,9.0244,13.96473,13.96473,0,0,1-8.6602,4.6425,14.89686,14.89686,0,0,1,12.543-13.6669Z"/>
            </g>
            <g>
              <path class="cls-2" d="M29.44008,66.72428a14.87222,14.87222,0,0,0,1.3262,18.5,14.8926,14.8926,0,0,0-1.3262-18.5Z"/>
              <path class="cls-2" d="M47.42838,74.57588a13.96328,13.96328,0,0,1-5.209,8.3291,13.98248,13.98248,0,0,1-9.2685,3.2734,14.02325,14.02325,0,0,1,5.2148-8.3301A13.99,13.99,0,0,1,47.42838,74.57588Z"/>
            </g>
            <g>
              <path class="cls-2" d="M39.61688,52.819a14.87369,14.87369,0,0,0-1.501,18.4854,13.96981,13.96981,0,0,0,3.9814-8.9834A13.92475,13.92475,0,0,0,39.61688,52.819Z"/>
              <path class="cls-2" d="M56.20378,63.31408a13.96266,13.96266,0,0,1-6.4141,7.4395,13.97091,13.97091,0,0,1-9.6543,1.8252,14.89289,14.89289,0,0,1,16.0684-9.2647Z"/>
            </g>
            <g>
              <path class="cls-2" d="M51.79068,40.61978a13.99793,13.99793,0,0,0-5.3027,8.2715,14.02045,14.02045,0,0,0,1.0127,9.7734,13.99455,13.99455,0,0,0,5.2978-8.2744A13.94582,13.94582,0,0,0,51.79068,40.61978Z"/>
              <path class="cls-2" d="M66.59048,53.51038a13.96846,13.96846,0,0,1-7.4697,6.3819,13.97619,13.97619,0,0,1-9.8213.3388,14.89919,14.89919,0,0,1,17.291-6.7207Z"/>
            </g>
            <g>
              <path class="cls-2" d="M65.67448,30.41278a13.99514,13.99514,0,0,0-6.4971,7.3711,14.01084,14.01084,0,0,0-.4844,9.8115,13.99117,13.99117,0,0,0,6.4942-7.374A13.93959,13.93959,0,0,0,65.67448,30.41278Z"/>
              <path class="cls-2" d="M78.34338,45.402a14.89633,14.89633,0,0,1-18.1142,4.0147,14.90474,14.90474,0,0,1,18.1142-4.0147Z"/>
            </g>
            <g>
              <path class="cls-2" d="M80.94888,22.43328a13.98538,13.98538,0,0,0-7.542,6.2959,14.03959,14.03959,0,0,0-1.9717,9.6269,13.97936,13.97936,0,0,0,7.5401-6.3037A13.95126,13.95126,0,0,0,80.94888,22.43328Z"/>
              <path class="cls-2" d="M91.195,39.17248a14.88906,14.88906,0,0,1-18.51169,1.2168A14.89716,14.89716,0,0,1,91.195,39.17248Z"/>
            </g>
            <g>
              <path class="cls-2" d="M236.23887,149.62268a14.87411,14.87411,0,0,1-13.7373,12.461,14.891,14.891,0,0,1,13.7373-12.461Z"/>
              <path class="cls-2" d="M217.80727,142.87858a14.88942,14.88942,0,0,0,2.4541,18.3828,14.88531,14.88531,0,0,0-2.4541-18.3828Z"/>
            </g>
            <g>
              <path class="cls-2" d="M238.48207,132.53578a14.8691,14.8691,0,0,1-11.6826,14.4053,14.89184,14.89184,0,0,1,11.6826-14.4053Z"/>
              <path class="cls-2" d="M219.24278,128.66768a14.89666,14.89666,0,0,0,5.21679,17.8037,14.8914,14.8914,0,0,0-5.21679-17.8037Z"/>
            </g>
            <g>
              <path class="cls-2" d="M238.10807,115.30728a14.88137,14.88137,0,0,1-9.36329,16.0127,14.90373,14.90373,0,0,1,9.36329-16.0127Z"/>
              <path class="cls-2" d="M218.50157,114.40588a14.89063,14.89063,0,0,0,7.8604,16.8037,14.90367,14.90367,0,0,0-7.8604-16.8037Z"/>
            </g>
            <g>
              <path class="cls-2" d="M235.11878,98.33558a14.87172,14.87172,0,0,1-6.82031,17.2461,14.88136,14.88136,0,0,1,6.82031-17.2461Z"/>
              <path class="cls-2" d="M215.60217,100.42448a14.88672,14.88672,0,0,0,10.3242,15.4111,14.89257,14.89257,0,0,0-10.3242-15.4111Z"/>
            </g>
            <g>
              <path class="cls-2" d="M229.58657,82.01528a14.881,14.881,0,0,1-4.1201,18.083,14.88287,14.88287,0,0,1,4.1201-18.083Z"/>
              <path class="cls-2" d="M210.613,87.04268a14.88749,14.88749,0,0,0,12.5459,13.6669,14.90112,14.90112,0,0,0-12.5459-13.6669Z"/>
            </g>
            <g>
              <path class="cls-2" d="M221.63637,66.72428a14.87054,14.87054,0,0,1-1.3272,18.5,14.89776,14.89776,0,0,1,1.3272-18.5Z"/>
              <path class="cls-2" d="M203.64907,74.57588a14.89739,14.89739,0,0,0,14.4766,11.6025,14.90582,14.90582,0,0,0-14.4766-11.6025Z"/>
            </g>
            <g>
              <path class="cls-2" d="M211.45867,52.819a14.87215,14.87215,0,0,1,1.5,18.4854,13.99365,13.99365,0,0,1-3.9805-8.9834A13.94485,13.94485,0,0,1,211.45867,52.819Z"/>
              <path class="cls-2" d="M194.87167,63.31408a14.889,14.889,0,0,0,16.0694,9.2647,14.89664,14.89664,0,0,0-16.0694-9.2647Z"/>
            </g>
            <g>
              <path class="cls-2" d="M199.28478,40.61978a13.96458,13.96458,0,0,1,5.30079,8.2715,13.98873,13.98873,0,0,1-1.0107,9.7734,13.9764,13.9764,0,0,1-5.294-8.2744A13.94084,13.94084,0,0,1,199.28478,40.61978Z"/>
              <path class="cls-2" d="M184.488,53.51038a14.88645,14.88645,0,0,0,17.289,6.7207,14.89782,14.89782,0,0,0-17.289-6.7207Z"/>
            </g>
            <g>
              <path class="cls-2" d="M185.40007,30.41278a13.97653,13.97653,0,0,1,6.498,7.3711,13.98419,13.98419,0,0,1,.4863,9.8115,13.97769,13.97769,0,0,1-6.4931-7.374A13.95216,13.95216,0,0,1,185.40007,30.41278Z"/>
              <path class="cls-2" d="M172.73207,45.402a14.89484,14.89484,0,0,0,18.1104,4.0147,14.89787,14.89787,0,0,0-18.1104-4.0147Z"/>
            </g>
            <g>
              <path class="cls-2" d="M170.12957,22.43328a13.9986,13.9986,0,0,1,7.54,6.2959,14.00958,14.00958,0,0,1,1.9678,9.6269,13.98,13.98,0,0,1-7.5371-6.3037A13.94254,13.94254,0,0,1,170.12957,22.43328Z"/>
              <path class="cls-2" d="M159.88247,39.17248a14.89062,14.89062,0,0,0,18.5127,1.2168,14.89848,14.89848,0,0,0-18.5127-1.2168Z"/>
            </g>
          </g>
          <polygon class="cls-2" points="125.537 219.567 127.603 225.923 134.286 225.923 128.88 229.849 130.945 236.202 125.537 232.275 120.132 236.202 122.197 229.849 116.793 225.923 123.474 225.923 125.537 219.567"/>
          <polygon class="cls-2" points="107.168 217.908 107.931 224.547 114.483 225.873 108.405 228.65 109.172 235.288 104.647 230.364 98.571 233.141 101.856 227.325 97.338 222.405 103.888 223.729 107.168 217.908"/>
          <polygon class="cls-2" points="89.494 212.64 88.926 219.3 95.082 221.898 88.575 223.414 88.009 230.069 84.551 224.349 78.046 225.866 82.418 220.816 78.964 215.096 85.125 217.693 89.494 212.64"/>
          <polygon class="cls-2" points="73.213 203.972 71.338 210.386 76.855 214.152 70.18 214.349 68.301 220.758 66.047 214.467 59.372 214.667 64.656 210.58 62.409 204.294 67.928 208.058 73.213 203.972"/>
          <polygon class="cls-2" points="58.974 192.247 55.865 198.163 60.527 202.948 53.943 201.818 50.831 207.729 49.871 201.114 43.289 199.984 49.28 197.03 48.322 190.42 52.987 195.206 58.974 192.247"/>
          <polygon class="cls-2" points="47.345 177.928 43.124 183.113 46.747 188.728 40.516 186.315 36.295 191.491 36.664 184.818 30.438 182.404 36.891 180.696 37.267 174.028 40.89 179.644 47.345 177.928"/>
          <polygon class="cls-2" points="144.562 217.908 143.796 224.547 137.247 225.873 143.322 228.65 142.558 235.288 147.084 230.364 153.158 233.141 149.877 227.325 154.396 222.405 147.844 223.729 144.562 217.908"/>
          <polygon class="cls-2" points="125.537 14.874 127.603 21.229 134.286 21.229 128.88 25.156 130.945 31.508 125.537 27.584 120.132 31.508 122.197 25.156 116.793 21.229 123.474 21.229 125.537 14.874"/>
          <polygon class="cls-2" points="103.252 17.053 106.54 22.871 113.088 21.546 108.571 26.465 111.858 32.282 105.777 29.507 101.26 34.428 102.021 27.793 95.946 25.017 102.493 23.69 103.252 17.053"/>
          <polygon class="cls-2" points="147.246 17.053 143.962 22.871 137.413 21.546 141.93 26.465 138.642 32.282 144.725 29.507 149.239 34.428 148.48 27.793 154.556 25.017 148.006 23.69 147.246 17.053"/>
          <polygon class="cls-2" points="162.239 212.64 162.801 219.3 156.65 221.898 163.155 223.414 163.72 230.069 167.178 224.349 173.684 225.866 169.312 220.816 172.765 215.096 166.608 217.693 162.239 212.64"/>
          <polygon class="cls-2" points="178.516 203.972 180.391 210.386 174.872 214.152 181.552 214.349 183.426 220.758 185.682 214.467 192.359 214.667 187.073 210.58 189.321 204.294 183.8 208.058 178.516 203.972"/>
          <polygon class="cls-2" points="192.754 192.247 195.865 198.163 191.202 202.948 197.785 201.818 200.896 207.729 201.86 201.114 208.444 199.984 202.452 197.03 203.407 190.42 198.742 195.206 192.754 192.247"/>
          <polygon class="cls-2" points="204.384 177.928 208.604 183.113 204.984 188.728 211.215 186.315 215.436 191.491 215.065 184.818 221.295 182.404 214.836 180.696 214.463 174.028 210.839 179.644 204.384 177.928"/>
        </g>
        <g>
          <g>
            <path class="cls-2" d="M14.83658,149.62268a14.01087,14.01087,0,0,0,4.6865,8.6319,14.00735,14.00735,0,0,0,9.0518,3.8291,13.95693,13.95693,0,0,0-4.6934-8.6309A13.94869,13.94869,0,0,0,14.83658,149.62268Z"/>
            <path class="cls-2" d="M33.26918,142.87858a14.88837,14.88837,0,0,1-2.457,18.3828,14.89424,14.89424,0,0,1,2.457-18.3828Z"/>
          </g>
          <g>
            <path class="cls-2" d="M12.59338,132.53578a13.977,13.977,0,0,0,3.3203,9.2442,14.00542,14.00542,0,0,0,8.3643,5.1611,13.98889,13.98889,0,0,0-3.3271-9.2461A13.95461,13.95461,0,0,0,12.59338,132.53578Z"/>
            <path class="cls-2" d="M31.83368,128.66768a13.95021,13.95021,0,0,1,.5009,9.8115,13.96447,13.96447,0,0,1-5.7187,7.9922,14.90041,14.90041,0,0,1,5.2178-17.8037Z"/>
          </g>
          <g>
            <path class="cls-2" d="M12.97038,115.30728a14.00351,14.00351,0,0,0,1.8769,9.6426,14.03064,14.03064,0,0,0,7.4834,6.3701,13.98609,13.98609,0,0,0-1.8847-9.6436A13.938,13.938,0,0,0,12.97038,115.30728Z"/>
            <path class="cls-2" d="M32.57388,114.40588a13.94508,13.94508,0,0,1-.9932,9.7744,13.96644,13.96644,0,0,1-6.8672,7.0293,14.90367,14.90367,0,0,1,7.8604-16.8037Z"/>
          </g>
          <g>
            <path class="cls-2" d="M15.95868,98.33558a14.8747,14.8747,0,0,0,6.8203,17.2461,13.9752,13.9752,0,0,0-.3975-9.8164A13.94464,13.94464,0,0,0,15.95868,98.33558Z"/>
            <path class="cls-2" d="M35.47528,100.42448a13.971,13.971,0,0,1-2.4678,9.5078,13.94871,13.94871,0,0,1-7.8555,5.9033,14.8932,14.8932,0,0,1,10.3233-15.4111Z"/>
          </g>
          <g>
            <path class="cls-2" d="M21.49278,82.01528a14.877,14.877,0,0,0,4.1182,18.083,14.8926,14.8926,0,0,0-4.1182-18.083Z"/>
            <path class="cls-2" d="M40.46258,87.04268a13.95706,13.95706,0,0,1-3.8828,9.0244,13.96473,13.96473,0,0,1-8.6602,4.6425,14.89686,14.89686,0,0,1,12.543-13.6669Z"/>
          </g>
          <g>
            <path class="cls-2" d="M29.44008,66.72428a14.87222,14.87222,0,0,0,1.3262,18.5,14.8926,14.8926,0,0,0-1.3262-18.5Z"/>
            <path class="cls-2" d="M47.42838,74.57588a13.96328,13.96328,0,0,1-5.209,8.3291,13.98248,13.98248,0,0,1-9.2685,3.2734,14.02325,14.02325,0,0,1,5.2148-8.3301A13.99,13.99,0,0,1,47.42838,74.57588Z"/>
          </g>
          <g>
            <path class="cls-2" d="M39.61688,52.819a14.87369,14.87369,0,0,0-1.501,18.4854,13.96981,13.96981,0,0,0,3.9814-8.9834A13.92475,13.92475,0,0,0,39.61688,52.819Z"/>
            <path class="cls-2" d="M56.20378,63.31408a13.96266,13.96266,0,0,1-6.4141,7.4395,13.97091,13.97091,0,0,1-9.6543,1.8252,14.89289,14.89289,0,0,1,16.0684-9.2647Z"/>
          </g>
          <g>
            <path class="cls-2" d="M51.79068,40.61978a13.99793,13.99793,0,0,0-5.3027,8.2715,14.02045,14.02045,0,0,0,1.0127,9.7734,13.99455,13.99455,0,0,0,5.2978-8.2744A13.94582,13.94582,0,0,0,51.79068,40.61978Z"/>
            <path class="cls-2" d="M66.59048,53.51038a13.96846,13.96846,0,0,1-7.4697,6.3819,13.97619,13.97619,0,0,1-9.8213.3388,14.89919,14.89919,0,0,1,17.291-6.7207Z"/>
          </g>
          <g>
            <path class="cls-2" d="M65.67448,30.41278a13.99514,13.99514,0,0,0-6.4971,7.3711,14.01084,14.01084,0,0,0-.4844,9.8115,13.99117,13.99117,0,0,0,6.4942-7.374A13.93959,13.93959,0,0,0,65.67448,30.41278Z"/>
            <path class="cls-2" d="M78.34338,45.402a14.89633,14.89633,0,0,1-18.1142,4.0147,14.90474,14.90474,0,0,1,18.1142-4.0147Z"/>
          </g>
          <g>
            <path class="cls-2" d="M80.94888,22.43328a13.98538,13.98538,0,0,0-7.542,6.2959,14.03959,14.03959,0,0,0-1.9717,9.6269,13.97936,13.97936,0,0,0,7.5401-6.3037A13.95126,13.95126,0,0,0,80.94888,22.43328Z"/>
            <path class="cls-2" d="M91.195,39.17248a14.88906,14.88906,0,0,1-18.51169,1.2168A14.89716,14.89716,0,0,1,91.195,39.17248Z"/>
          </g>
          <g>
            <path class="cls-2" d="M236.23887,149.62268a14.87411,14.87411,0,0,1-13.7373,12.461,14.891,14.891,0,0,1,13.7373-12.461Z"/>
            <path class="cls-2" d="M217.80727,142.87858a14.88942,14.88942,0,0,0,2.4541,18.3828,14.88531,14.88531,0,0,0-2.4541-18.3828Z"/>
          </g>
          <g>
            <path class="cls-2" d="M238.48207,132.53578a14.8691,14.8691,0,0,1-11.6826,14.4053,14.89184,14.89184,0,0,1,11.6826-14.4053Z"/>
            <path class="cls-2" d="M219.24278,128.66768a14.89666,14.89666,0,0,0,5.21679,17.8037,14.8914,14.8914,0,0,0-5.21679-17.8037Z"/>
          </g>
          <g>
            <path class="cls-2" d="M238.10807,115.30728a14.88137,14.88137,0,0,1-9.36329,16.0127,14.90373,14.90373,0,0,1,9.36329-16.0127Z"/>
            <path class="cls-2" d="M218.50157,114.40588a14.89063,14.89063,0,0,0,7.8604,16.8037,14.90367,14.90367,0,0,0-7.8604-16.8037Z"/>
          </g>
          <g>
            <path class="cls-2" d="M235.11878,98.33558a14.87172,14.87172,0,0,1-6.82031,17.2461,14.88136,14.88136,0,0,1,6.82031-17.2461Z"/>
            <path class="cls-2" d="M215.60217,100.42448a14.88672,14.88672,0,0,0,10.3242,15.4111,14.89257,14.89257,0,0,0-10.3242-15.4111Z"/>
          </g>
          <g>
            <path class="cls-2" d="M229.58657,82.01528a14.881,14.881,0,0,1-4.1201,18.083,14.88287,14.88287,0,0,1,4.1201-18.083Z"/>
            <path class="cls-2" d="M210.613,87.04268a14.88749,14.88749,0,0,0,12.5459,13.6669,14.90112,14.90112,0,0,0-12.5459-13.6669Z"/>
          </g>
          <g>
            <path class="cls-2" d="M221.63637,66.72428a14.87054,14.87054,0,0,1-1.3272,18.5,14.89776,14.89776,0,0,1,1.3272-18.5Z"/>
            <path class="cls-2" d="M203.64907,74.57588a14.89739,14.89739,0,0,0,14.4766,11.6025,14.90582,14.90582,0,0,0-14.4766-11.6025Z"/>
          </g>
          <g>
            <path class="cls-2" d="M211.45867,52.819a14.87215,14.87215,0,0,1,1.5,18.4854,13.99365,13.99365,0,0,1-3.9805-8.9834A13.94485,13.94485,0,0,1,211.45867,52.819Z"/>
            <path class="cls-2" d="M194.87167,63.31408a14.889,14.889,0,0,0,16.0694,9.2647,14.89664,14.89664,0,0,0-16.0694-9.2647Z"/>
          </g>
          <g>
            <path class="cls-2" d="M199.28478,40.61978a13.96458,13.96458,0,0,1,5.30079,8.2715,13.98873,13.98873,0,0,1-1.0107,9.7734,13.9764,13.9764,0,0,1-5.294-8.2744A13.94084,13.94084,0,0,1,199.28478,40.61978Z"/>
            <path class="cls-2" d="M184.488,53.51038a14.88645,14.88645,0,0,0,17.289,6.7207,14.89782,14.89782,0,0,0-17.289-6.7207Z"/>
          </g>
          <g>
            <path class="cls-2" d="M185.40007,30.41278a13.97653,13.97653,0,0,1,6.498,7.3711,13.98419,13.98419,0,0,1,.4863,9.8115,13.97769,13.97769,0,0,1-6.4931-7.374A13.95216,13.95216,0,0,1,185.40007,30.41278Z"/>
            <path class="cls-2" d="M172.73207,45.402a14.89484,14.89484,0,0,0,18.1104,4.0147,14.89787,14.89787,0,0,0-18.1104-4.0147Z"/>
          </g>
          <g>
            <path class="cls-2" d="M170.12957,22.43328a13.9986,13.9986,0,0,1,7.54,6.2959,14.00958,14.00958,0,0,1,1.9678,9.6269,13.98,13.98,0,0,1-7.5371-6.3037A13.94254,13.94254,0,0,1,170.12957,22.43328Z"/>
            <path class="cls-2" d="M159.88247,39.17248a14.89062,14.89062,0,0,0,18.5127,1.2168,14.89848,14.89848,0,0,0-18.5127-1.2168Z"/>
          </g>
        </g>
        <polygon class="cls-2" points="107.168 217.908 107.931 224.547 114.483 225.873 108.405 228.65 109.172 235.288 104.647 230.364 98.571 233.141 101.856 227.325 97.338 222.405 103.888 223.729 107.168 217.908"/>
        <polygon class="cls-2" points="89.494 212.64 88.926 219.3 95.082 221.898 88.575 223.414 88.009 230.069 84.551 224.349 78.046 225.866 82.418 220.816 78.964 215.096 85.125 217.693 89.494 212.64"/>
        <polygon class="cls-2" points="73.213 203.972 71.338 210.386 76.855 214.152 70.18 214.349 68.301 220.758 66.047 214.467 59.372 214.667 64.656 210.58 62.409 204.294 67.928 208.058 73.213 203.972"/>
        <polygon class="cls-2" points="58.974 192.247 55.865 198.163 60.527 202.948 53.943 201.818 50.831 207.729 49.871 201.114 43.289 199.984 49.28 197.03 48.322 190.42 52.987 195.206 58.974 192.247"/>
        <polygon class="cls-2" points="47.345 177.928 43.124 183.113 46.747 188.728 40.516 186.315 36.295 191.491 36.664 184.818 30.438 182.404 36.891 180.696 37.267 174.028 40.89 179.644 47.345 177.928"/>
        <polygon class="cls-2" points="144.562 217.908 143.796 224.547 137.247 225.873 143.322 228.65 142.558 235.288 147.084 230.364 153.158 233.141 149.877 227.325 154.396 222.405 147.844 223.729 144.562 217.908"/>
        <polygon class="cls-2" points="162.239 212.64 162.801 219.3 156.65 221.898 163.155 223.414 163.72 230.069 167.178 224.349 173.684 225.866 169.312 220.816 172.765 215.096 166.608 217.693 162.239 212.64"/>
        <polygon class="cls-2" points="178.516 203.972 180.391 210.386 174.872 214.152 181.552 214.349 183.426 220.758 185.682 214.467 192.359 214.667 187.073 210.58 189.321 204.294 183.8 208.058 178.516 203.972"/>
        <polygon class="cls-2" points="192.754 192.247 195.865 198.163 191.202 202.948 197.785 201.818 200.896 207.729 201.86 201.114 208.444 199.984 202.452 197.03 203.407 190.42 198.742 195.206 192.754 192.247"/>
        <polygon class="cls-2" points="204.384 177.928 208.604 183.113 204.984 188.728 211.215 186.315 215.436 191.491 215.065 184.818 221.295 182.404 214.836 180.696 214.463 174.028 210.839 179.644 204.384 177.928"/>
      </g>
      <g>
        <path class="cls-2" d="M74.35853,83.77741h31.04v58.90625H88.99622V95.05378H74.35853Z"/>
        <path class="cls-2" d="M163.53333,107.50788a22.35065,22.35065,0,0,1,9.75781,6.31152,13.90324,13.90324,0,0,1,3.42578,9.25684,16.80494,16.80494,0,0,1-3.581,10.64551,22.63284,22.63284,0,0,1-10.17383,7.06836,43.326,43.326,0,0,1-15.3125,2.48242,62.69134,62.69134,0,0,1-28.13281-7.15235l6.332-9.93066a39.74963,39.74963,0,0,0,9.75879,4.71289,33.14279,33.14279,0,0,0,10.27734,1.68262q6.12451,0,9.6543-2.31348a7.153,7.153,0,0,0,3.53027-6.26953,6.52979,6.52979,0,0,0-3.47851-5.93262q-3.479-2.061-10.3291-2.06152-3.8423,0-10.12207.126-6.28125.126-9.49805.3789V83.77741h47.75391V94.88483H140.798V105.2364h8.09766A43.26558,43.26558,0,0,1,163.53333,107.50788Z"/>
      </g>
      <g>
        <path class="cls-2" d="M101.1764,149.41441,96.861,157.43589v3.8252H94.18714v-3.75684l-4.38379-8.08984h2.69043l3.03027,5.31445,2.96094-5.31445Z"/>
        <path class="cls-2" d="M105.81312,149.41441h9.0205v2.2168h-6.3457v2.57226h5.70313v2.21778h-5.70313v2.623h6.53223v2.2168h-9.207Z"/>
        <path class="cls-2" d="M129.25257,161.26109l-.93067-2.30176h-5.48339l-.93067,2.30176h-2.75879l5.14453-11.84668h2.75879l5.06055,11.84668Zm-5.53418-4.45117h3.74023l-1.86132-4.60352Z"/>
        <path class="cls-2" d="M144.0094,161.26109l-1.87792-3.38477h-2.72461v3.38477h-2.67481V149.41441h5.14551a5.4006,5.4006,0,0,1,3.58789,1.07422,3.76448,3.76448,0,0,1,1.26953,3.03808,4.57822,4.57822,0,0,1-.56738,2.34375,3.644,3.644,0,0,1-1.65039,1.48145l2.52148,3.90918Zm-4.60253-5.61914h2.4707a2.56323,2.56323,0,0,0,1.71777-.51563,1.8865,1.8865,0,0,0,.60059-1.51464,1.81689,1.81689,0,0,0-.60059-1.48145,2.62545,2.62545,0,0,0-1.71777-.499h-2.4707Z"/>
        <path class="cls-2" d="M158.234,151.82554a5.87677,5.87677,0,0,0-1.751-.3291,2.0658,2.0658,0,0,0-1.10059.25293.82621.82621,0,0,0-.40625.74512,1.04282,1.04282,0,0,0,.584.956,9.06259,9.06259,0,0,0,1.80273.68555,15.53874,15.53874,0,0,1,2.00488.71094,3.54678,3.54678,0,0,1,1.34571,1.0664,2.95452,2.95452,0,0,1,.55859,1.87793,3.22023,3.22023,0,0,1-.60059,1.95508,3.71013,3.71013,0,0,1-1.65039,1.24414,6.3522,6.3522,0,0,1-2.38574.42285,8.16229,8.16229,0,0,1-2.82715-.50781,7.6307,7.6307,0,0,1-2.40234-1.38769l1.06543-2.1836a7.20139,7.20139,0,0,0,2.06543,1.30371,5.55758,5.55758,0,0,0,2.13183.49024,2.35186,2.35186,0,0,0,1.29493-.30469,1.0626,1.0626,0,0,0,.15234-1.63281,2.39669,2.39669,0,0,0-.7959-.48243q-.48194-.186-1.32812-.42285a15.08326,15.08326,0,0,1-1.98828-.67675,3.50955,3.50955,0,0,1-1.32911-1.03223,2.8583,2.8583,0,0,1-.55859-1.84473,3.129,3.129,0,0,1,.57617-1.87011,3.63841,3.63841,0,0,1,1.60742-1.23536,6.189,6.189,0,0,1,2.40332-.43164,8.30987,8.30987,0,0,1,2.40332.35547,8.13469,8.13469,0,0,1,2.09864.94727l-1.03223,2.21679A9.048,9.048,0,0,0,158.234,151.82554Z"/>
      </g>
      <g>
        <path class="cls-2" d="M71.32435,169.41148H78.6261v1.30664H72.76673v3.24512h5.24414v1.30761H72.76673v3.35059h6.04v1.30664H71.32435Z"/>
        <path class="cls-2" d="M81.69153,169.41148h1.68262l2.76465,3.9209,2.7793-3.9209h1.69824l-3.56153,5.04785,3.86133,5.46875H89.1886l-3.0498-4.25195-3.01953,4.25195H81.421l3.84668-5.4082Z"/>
        <path class="cls-2" d="M101.41028,170.34312a3.276,3.276,0,0,1,1.07422,2.61426,3.47324,3.47324,0,0,1-1.082,2.72656,4.39612,4.39612,0,0,1-3.03516.96875H95.75306v3.27539H94.31067v-10.5166h4.05664A4.50381,4.50381,0,0,1,101.41028,170.34312ZM100.381,174.7523a2.13488,2.13488,0,0,0,.7207-1.75,2.0566,2.0566,0,0,0-.7207-1.70508,3.24587,3.24587,0,0,0-2.07325-.5791l-2.55468.01563v4.6123h2.55468A3.18866,3.18866,0,0,0,100.381,174.7523Z"/>
        <path class="cls-2" d="M105.89368,169.41148h7.30176v1.30664h-5.85938v3.24512h5.24415v1.30761h-5.24415v3.35059h6.04v1.30664h-7.48242Z"/>
        <path class="cls-2" d="M123.99817,179.92808l-2.08789-3.30566q-.36034.03077-.58593.03027h-2.67481v3.27539h-1.44238v-10.5166h4.11719a4.63428,4.63428,0,0,1,3.08691.92383,3.24882,3.24882,0,0,1,1.08984,2.62207,3.73128,3.73128,0,0,1-.59375,2.14844,3.32221,3.32221,0,0,1-1.70507,1.26171l2.44921,3.56055Zm-2.67382-4.582a3.18682,3.18682,0,0,0,2.07324-.59375,2.13488,2.13488,0,0,0,.7207-1.75,2.0566,2.0566,0,0,0-.7207-1.70508,3.244,3.244,0,0,0-2.07324-.5791h-2.67481v4.62793Z"/>
        <path class="cls-2" d="M129.57142,169.41148h1.44238v10.5166h-1.44238Z"/>
        <path class="cls-2" d="M135.52064,169.41148h7.30175v1.30664H136.963v3.24512h5.24414v1.30761H136.963v3.35059h6.04v1.30664h-7.48242Z"/>
        <path class="cls-2" d="M154.31653,169.41148h1.42676v10.5166h-1.457l-6.00977-8.14258v8.14258h-1.44238v-10.5166h1.458l6.02441,8.1582Z"/>
        <path class="cls-2" d="M166.48548,170.95152a4.0477,4.0477,0,0,0-5.15332,1.65234,4.0506,4.0506,0,0,0,1.47168,5.53614,4.00161,4.00161,0,0,0,2.04394.541,4.11169,4.11169,0,0,0,1.62207-.33789,4.68173,4.68173,0,0,0,1.41211-.92383l.87207.94629a5.88347,5.88347,0,0,1-1.84863,1.22461,5.51955,5.51955,0,0,1-4.88281-.27051,5.3063,5.3063,0,0,1-2.68848-4.665,5.169,5.169,0,0,1,.72852-2.69629,5.26359,5.26359,0,0,1,1.99023-1.93066,5.596,5.596,0,0,1,2.7793-.70605,5.6544,5.6544,0,0,1,2.126.41308,5.24815,5.24815,0,0,1,1.78027,1.16406l-.85645,1.03614A4.351,4.351,0,0,0,166.48548,170.95152Z"/>
        <path class="cls-2" d="M172.26868,169.41148h7.30176v1.30664h-5.85938v3.24512h5.24415v1.30761h-5.24415v3.35059h6.04v1.30664h-7.48242Z"/>
      </g>
      <g>
        <path class="cls-2" d="M111.402,66.641a5.56037,5.56037,0,0,1,2.10059,2.02344,5.37608,5.37608,0,0,1,.77148,2.82519,5.46187,5.46187,0,0,1-.77148,2.8418,5.57468,5.57468,0,0,1-2.10059,2.0459,6.07471,6.07471,0,0,1-5.84082,0,5.58435,5.58435,0,0,1-2.10156-2.0459,5.47025,5.47025,0,0,1-.77051-2.8418,5.38429,5.38429,0,0,1,.77051-2.82519,5.59114,5.59114,0,0,1,2.09375-2.02344,6.15353,6.15353,0,0,1,5.84863,0Zm-5.03808,1.18067a4.30562,4.30562,0,0,0-1.56543,1.53515,4.207,4.207,0,0,0,0,4.27344A4.34023,4.34023,0,0,0,106.3639,75.181a4.15114,4.15114,0,0,0,2.13379.57422,4.06692,4.06692,0,0,0,2.11718-.57422,4.32221,4.32221,0,0,0,1.542-1.55078,4.25634,4.25634,0,0,0,0-4.27344,4.28675,4.28675,0,0,0-1.542-1.53515,4.11591,4.11591,0,0,0-2.11718-.56641A4.20143,4.20143,0,0,0,106.3639,67.82164Z"/>
        <path class="cls-2" d="M115.58167,65.99546h1.62109l3.63575,9.335,3.63672-9.335h1.58984L121.59437,77.015h-1.57422Z"/>
        <path class="cls-2" d="M128.4889,65.99546h7.65039v1.37012h-6.13965V70.766h5.49414v1.36914h-5.49414v3.51074h6.32812V77.015H128.4889Z"/>
        <path class="cls-2" d="M146.65491,77.015l-2.18847-3.4629q-.37794.03077-.61329.03125h-2.80273V77.015h-1.51074V65.99546h4.31347a4.85776,4.85776,0,0,1,3.23438.96875,3.40389,3.40389,0,0,1,1.1416,2.74707,3.91,3.91,0,0,1-.62207,2.251,3.48757,3.48757,0,0,1-1.78613,1.32227l2.56543,3.73047Zm-2.80176-4.80079a3.33526,3.33526,0,0,0,2.17188-.62207,2.23584,2.23584,0,0,0,.75586-1.834,2.15491,2.15491,0,0,0-.75586-1.78711,3.40393,3.40393,0,0,0-2.17188-.60547h-2.80273v4.84863Z"/>
      </g>
    </g>
  </g>
</svg>
